<!--?xml packageVersion="1.0" encoding="utf-8"?-->
<!-- Generator: Adobe Illustrator 19.1.1, SVG Export Plug-In . SVG Version: 6.00 Build 0)  -->
<svg version="1.1" id="_x31_0" xmlns="http://www.w3.org/2000/svg" x="0px" y="0px"
  viewBox="0 0 512 512" style="width: 512px; height: 512px; opacity: 1;" xml:space="preserve">
<style type="text/css">
	.st0{fill:#374149;}
</style>
<g>
	<path class="st0" d="M464.239,333.194h-22.825c-5.983,0-11.574,2.948-15.07,7.843l-12.108,17.004
		c-1.009,1.244-1.941,2.564-2.723,3.957h-26.94v22.598h26.94c0.782,1.4,1.714,2.72,2.723,3.96l12.035,17.007
		c2.402,3.336,5.897,5.824,9.781,6.988c1.79,0.541,3.572,0.852,5.362,0.852h22.825c3.963,0,7.223-3.26,7.223-7.22v-65.77
		C471.462,336.378,468.202,333.194,464.239,333.194z" style="fill: rgb(255, 0, 0);"></path>
	<path class="st0" d="M511.997,354.486c0-4.162-3.383-7.535-7.535-7.535h-20.406h-0.037h-0.043v15.07h20.486
		C508.614,362.021,511.997,358.634,511.997,354.486z" style="fill: rgb(255, 0, 0);"></path>
	<path class="st0" d="M504.458,384.55h-20.483v15.077h20.483c4.155,0,7.538-3.386,7.542-7.538
		C511.997,387.919,508.614,384.55,504.458,384.55z" style="fill: rgb(255, 0, 0);"></path>
	<path class="st0" d="M161.666,289.959l51.977,13.959c3.13,0.839,5.041,3.997,4.331,7.157l-10.58,47.162
		c-1.393,6.205,6.514,10.075,10.56,5.166l58.175-70.578c2.796-3.393,1.15-8.54-3.094-9.681l-51.94-13.959
		c-3.127-0.842-5.045-3.97-4.334-7.13c2.195-9.77,6.838-30.436,10.599-47.168c1.396-6.205-6.51-10.069-10.56-5.163l-58.225,70.552
		C155.773,283.668,157.422,288.818,161.666,289.959z" style="fill: rgb(255, 0, 0);"></path>
	<path class="st0" d="M433.465,264.571c2.762-7.203,0.799-15.362-4.938-20.522l-79.838-71.799V81.871
		c0-10.288-8.338-18.626-18.629-18.626h-56.278c-10.291,0-18.633,8.338-18.633,18.626v5.234l-0.053,2.079l-0.106,1.171l-25.285-22.4
		c-7.048-6.249-17.647-6.249-24.708,0L6.278,243.956c-5.794,5.13-7.81,13.313-5.067,20.549c2.742,7.237,9.678,12.026,17.418,12.026
		h48.527h0.013v153.591c0,10.291,8.342,18.633,18.632,18.633H348.9c10.291,0,18.63-8.342,18.63-18.633V276.866v-0.335h48.54
		C423.784,276.53,430.706,271.778,433.465,264.571z M67.978,239.081l149.372-132.29l44.077,39.049
		c5.482,4.855,13.316,6.056,19.998,3.045c6.686-3.011,10.985-9.658,10.985-16.99v-31.391h19.017v80.047
		c0,5.287,2.245,10.322,6.175,13.854l28.728,25.832l12.095,10.954l8.772,8.082H348.9c-10.29,0-18.629,8.342-18.629,18.629V410.69
		v0.802H104.43V257.902c0-10.287-8.342-18.629-18.63-18.629H75.44l-4.398-0.056L67.978,239.081z" style="fill: rgb(255, 0, 0);"></path>
</g>
</svg>
